<svg xmlns="http://www.w3.org/2000/svg" width="116" height="108" viewBox="0 0 116 108">
  <path id="_2181286_global_loan_money_pawnshop_cash_icon" data-name="2181286_global_loan_money_pawnshop_cash_icon" d="M59,1C27.02,1,1,25.225,1,55s26.02,54,58,54,58-24.225,58-54S90.98,1,59,1Zm3.244,104.419c-.457.024-.915.04-1.373.054V91.581a21.177,21.177,0,0,0,15.651-6.75c1.74.427,3.336.9,4.8,1.407A92.958,92.958,0,0,1,62.244,105.419ZM84.939,87.647a31.375,31.375,0,0,1,9.149,5.839,55.846,55.846,0,0,1-25.011,11.141A93.362,93.362,0,0,0,84.939,87.647ZM36.668,86.242c1.467-.509,3.067-.982,4.81-1.411a21.177,21.177,0,0,0,15.651,6.75v13.892c-.458-.014-.917-.03-1.373-.054A92.663,92.663,0,0,1,36.668,86.242ZM48.923,104.63A55.846,55.846,0,0,1,23.912,93.488a31.3,31.3,0,0,1,9.149-5.839A93.48,93.48,0,0,0,48.923,104.63ZM55.756,4.581c.457-.024.915-.038,1.373-.054V18.419a21.177,21.177,0,0,0-15.651,6.75c-1.74-.427-3.336-.9-4.8-1.407A92.957,92.957,0,0,1,55.756,4.581ZM33.061,22.353a31.376,31.376,0,0,1-9.149-5.839A55.846,55.846,0,0,1,48.923,5.372,93.363,93.363,0,0,0,33.061,22.353ZM75.029,80.875a79.706,79.706,0,0,0-14.158-1.463V56.742c9.284,0,16.839,7.034,16.839,15.677A14.813,14.813,0,0,1,75.029,80.875ZM57.129,88.1a17.441,17.441,0,0,1-11.387-4.163A77.713,77.713,0,0,1,57.129,82.92Zm3.742-5.175a77.422,77.422,0,0,1,11.387,1.014A17.449,17.449,0,0,1,60.871,88.1Zm-17.9-53.8a79.7,79.7,0,0,0,14.158,1.463v22.67c-9.284,0-16.839-7.034-16.839-15.677A14.813,14.813,0,0,1,42.971,29.125Zm14.158-2.047a77.425,77.425,0,0,1-11.387-1.014A17.449,17.449,0,0,1,57.129,21.9ZM60.871,21.9a17.441,17.441,0,0,1,11.387,4.163A77.711,77.711,0,0,1,60.871,27.08Zm-21.7,6.339a18.017,18.017,0,0,0-2.627,9.339,18.8,18.8,0,0,0,8.784,15.677H25.379c.413-9.98,4.3-18.971,9.2-26.451C35.993,27.317,37.518,27.8,39.175,28.242Zm17.954,28.5V79.413a79.7,79.7,0,0,0-14.158,1.463,14.823,14.823,0,0,1-2.681-8.457V70.677H36.548v1.742a18.017,18.017,0,0,0,2.627,9.339c-1.66.442-3.19.927-4.6,1.439-4.9-7.478-8.78-16.468-9.192-26.455Zm21.7,25.016a18.017,18.017,0,0,0,2.627-9.339,18.8,18.8,0,0,0-8.784-15.677H92.621c-.413,9.98-4.3,18.971-9.2,26.451C82.007,82.683,80.482,82.2,78.825,81.758Zm-17.954-28.5V30.587a79.7,79.7,0,0,0,14.158-1.463,14.822,14.822,0,0,1,2.681,8.457v1.742h3.742V37.581a18.017,18.017,0,0,0-2.627-9.339c1.66-.442,3.19-.927,4.6-1.439,4.9,7.478,8.78,16.468,9.192,26.455ZM76.522,25.169a21.177,21.177,0,0,0-15.651-6.75V4.527c.458.014.917.03,1.373.054A92.664,92.664,0,0,1,81.332,23.758C79.865,24.267,78.265,24.741,76.522,25.169Zm-7.445-19.8A55.846,55.846,0,0,1,94.088,16.512a31.3,31.3,0,0,1-9.149,5.839A93.48,93.48,0,0,0,69.077,5.371Zm-47.945,13.5a33.732,33.732,0,0,0,9.9,6.5c-5.04,7.835-8.994,17.283-9.392,27.892H4.789A48.85,48.85,0,0,1,21.132,18.871ZM4.789,56.742H21.635c.4,10.608,4.352,20.055,9.392,27.892a33.786,33.786,0,0,0-9.9,6.5A48.857,48.857,0,0,1,4.789,56.742ZM96.868,91.13a33.732,33.732,0,0,0-9.9-6.5c5.04-7.835,8.994-17.283,9.392-27.892h9.409V53.256H96.367c-.4-10.608-4.352-20.055-9.392-27.892a33.787,33.787,0,0,0,9.9-6.5,48.85,48.85,0,0,1,16.343,34.388h-3.7v3.484h3.7A48.851,48.851,0,0,1,96.868,91.13Z" transform="translate(-1 -1)" fill="#cd151d"/>
</svg>
