<svg xmlns="http://www.w3.org/2000/svg" width="448" height="448" viewBox="0 0 448 448">
  <g id="logo-instagram" transform="translate(-32 -32)">
    <path id="Path_78" data-name="Path 78" d="M349.33,69.33a93.62,93.62,0,0,1,93.34,93.34V349.33a93.62,93.62,0,0,1-93.34,93.34H162.67a93.62,93.62,0,0,1-93.34-93.34V162.67a93.62,93.62,0,0,1,93.34-93.34H349.33m0-37.33H162.67C90.8,32,32,90.8,32,162.67V349.33C32,421.2,90.8,480,162.67,480H349.33C421.2,480,480,421.2,480,349.33V162.67C480,90.8,421.2,32,349.33,32Z" fill="#fff"/>
    <path id="Path_79" data-name="Path 79" d="M377.33,162.67a27.94,27.94,0,1,1,19.817-8.183,28,28,0,0,1-19.817,8.183ZM256,181.33A74.67,74.67,0,1,1,181.33,256,74.67,74.67,0,0,1,256,181.33M256,144A112,112,0,1,0,368,256,112,112,0,0,0,256,144Z" fill="#fff"/>
  </g>
</svg>
