<svg xmlns="http://www.w3.org/2000/svg" width="68" height="62" viewBox="0 0 68 62">
  <path id="path2237" d="M52.662,10.863a.99.99,0,0,0-.33-.714L42.135.85a1.294,1.294,0,0,0-.8-.321H3.918A3.24,3.24,0,0,0,.529,3.641c0,17.554.024,36.155,0,53.721a5.423,5.423,0,0,0,5.664,5.167H49.262a5.422,5.422,0,0,0,5.664-5.163V52.194A1.086,1.086,0,0,0,53.8,51.165H52.662V45.39l6.2,7.056a5.78,5.78,0,0,0,7.73.626,4.54,4.54,0,0,0,.418-7.088L56.536,36.92A12.579,12.579,0,0,0,53.8,20.8V15.008a1.087,1.087,0,0,0-1.131-1.029ZM23.2,26.363a1.038,1.038,0,1,0,0,2.067h5.848a12.288,12.288,0,0,0-.177,2.067H23.2a1.038,1.038,0,1,0,0,2.067H29.04a13.767,13.767,0,0,0,9.213,10.454,16.04,16.04,0,0,0,11.9-.488l.248.285v8.351H10.727A1.088,1.088,0,0,0,9.6,52.194v5.173a3.252,3.252,0,0,1-3.4,3.1,3.248,3.248,0,0,1-3.4-3.1c.024-17.908-.034-35.138,0-53.726A1.065,1.065,0,0,1,3.934,2.6h36.26v8.285a1.088,1.088,0,0,0,1.138,1.029H50.4v2.061l-2.264-.008A1.1,1.1,0,0,0,47,15.008V17.07l-3.408-.01c-6.445.009-12.066,3.829-14.006,9.3ZM14.129,6.729a1.038,1.038,0,1,0,0,2.067h17a1.038,1.038,0,1,0,0-2.067Zm0,4.133a1.038,1.038,0,1,0,0,2.067h20.4a1.038,1.038,0,1,0,0-2.067Zm35.133,5.183h2.267V29.471H49.262Zm-4.533,3.1H47l0,10.329H44.727Zm-2.267,3.1-3.4-.008a1.491,1.491,0,0,0-.857.375A8.887,8.887,0,0,0,34,33.642c1.666,4.227,6.428,6.77,11.287,6.026s8.448-4.562,8.509-9.054c-.005-2.209,0-4.428,0-6.64a10.514,10.514,0,0,1,.4,12.5,13.1,13.1,0,0,1-15.125,4.616c-5.583-1.982-8.852-7.332-7.723-12.723,1.046-5,5.621-8.732,11.112-9.189ZM6.194,20.163A1.086,1.086,0,0,0,5.065,21.2V31.527a1.086,1.086,0,0,0,1.129,1.039H18.658a1.087,1.087,0,0,0,1.14-1.039v-3.1a1.139,1.139,0,0,0-2.269,0V30.5H7.331V22.229h6.8a1.04,1.04,0,1,0,0-2.067Zm11.763,2.291L13.08,26.015,11.53,24.6c-1.071-.976-2.676.487-1.6,1.463l2.267,2.069a1.215,1.215,0,0,0,1.514.075l5.664-4.133a1.035,1.035,0,0,0-.828-1.841,1.191,1.191,0,0,0-.587.224Zm5.239-.224a1.038,1.038,0,1,0,0,2.067h4.533a1.038,1.038,0,1,0,0-2.067ZM40.2,24.306H42.46v5.165H40.2Zm-2.267,1.122v5.08a1.086,1.086,0,0,0,1.129,1.029H51.44a7.609,7.609,0,0,1-6.528,6.1,8.062,8.062,0,0,1-8.777-4.693,6.77,6.77,0,0,1,1.8-7.512Zm-31.742,9.2a1.086,1.086,0,0,0-1.129,1.037V45.992a1.086,1.086,0,0,0,1.129,1.037H18.658a1.087,1.087,0,0,0,1.14-1.037V42.9a1.139,1.139,0,0,0-2.269,0v2.067H7.331V36.694h6.8a1.04,1.04,0,1,0,0-2.067Zm12.349,2.065a1.191,1.191,0,0,0-.587.224L13.08,40.478,11.53,39.059c-1.071-.976-2.676.489-1.6,1.465l2.267,2.067a1.215,1.215,0,0,0,1.514.077l5.664-4.135a1.035,1.035,0,0,0-.828-1.841Zm4.653,0a1.038,1.038,0,1,0,0,2.067h4.533a1.038,1.038,0,1,0,0-2.067Zm0,4.133a1.038,1.038,0,1,0,0,2.067H30a1.038,1.038,0,1,0,0-2.067Zm0,4.133a1.038,1.038,0,1,0,0,2.067H36.8a1.038,1.038,0,1,0,0-2.067Z" transform="translate(-0.529 -0.529)" fill="#cd151d"/>
</svg>
