<svg xmlns="http://www.w3.org/2000/svg" width="132.746" height="104.236" viewBox="0 0 132.746 104.236">
  <path id="Path_30" data-name="Path 30" d="M161.633,88.2a52.523,52.523,0,0,0-21.851-12.421c14.1-6.622,25.356-7.775,30.48-3.007,3.494,3.256,4.06,9.317,1.633,17.167l-2.281-4.679-2.7,1.139,4.38,8.986,9.7-4.1-1.224-2.514-5.1,2.155c2.866-9.083,2.078-16.019-2.314-20.108-6.54-6.089-19.952-4.649-36.839,3.929a55.164,55.164,0,0,0-8.958-1.035c-.264-.019-.525-.036-.788-.036-.11,0-.219.006-.326.011-.255-.006-.51-.011-.767-.011-.436,0-.868.006-1.3.019q-.907.021-1.8.072H87.726v2.759h19.433A52.359,52.359,0,0,0,87.726,88.2q-1.067,1.018-2.068,2.091a48.681,48.681,0,0,0-3.316,3.948H57.58V97H80.409a47.1,47.1,0,0,0-2.948,5.256H66.5v2.759h9.749a45.043,45.043,0,0,0-2.279,26.065q-.44.712-.862,1.418H48.252v2.759H71.514q-1.662,3-2.954,5.863H56.528v2.759h10.86a45.3,45.3,0,0,0-2.513,8.426c-1.233,6.721-.012,12.013,3.526,15.307,2.664,2.48,6.415,3.731,11.186,3.728a31.161,31.161,0,0,0,3.171-.168c5.645-.577,12.2-2.6,19.5-6.023a54.291,54.291,0,0,0,19.178,4.674.046.046,0,0,0,.02,0c.628.036,1.259.063,1.894.077.441.011.886.017,1.33.017.279,0,.554-.006.833-.008.086,0,.172.008.261.008.243,0,.489-.014.732-.033a53.92,53.92,0,0,0,27.651-8.556,51.166,51.166,0,0,0,8.087-6.472c.264-.257.519-.513.77-.776a47.531,47.531,0,0,0,9.82-14.78l-2.759-1a45.082,45.082,0,0,1-6.712,11.138,72.426,72.426,0,0,0-18.728-5.766,102.515,102.515,0,0,0,2.219-20.917h26.524a42.5,42.5,0,0,1-1.624,10.769l2.863.712a45.139,45.139,0,0,0,1.742-12.433A46.053,46.053,0,0,0,163.7,90.289Q162.7,89.217,161.633,88.2Zm-54.8,55.11c-.963.151-1.917.315-2.857.491a71.751,71.751,0,0,0-17.922,5.6A43.859,43.859,0,0,1,77.1,131.557c1.846-2.911,3.9-5.855,6.155-8.8h21.43c0,.047,0,.1,0,.144,0,.408.009.816.018,1.222a.276.276,0,0,0,0,.05q.009.538.027,1.068c.012.395.024.789.041,1.184,0,.075.006.149.009.224.024.535.05,1.07.083,1.6.021.392.044.781.074,1.167A96.979,96.979,0,0,0,106.833,143.313Zm31.42-54.058a61.055,61.055,0,0,1,2.59,7.637,113.126,113.126,0,0,1-16.165,1.137,114.4,114.4,0,0,1-14.055-.852c.219-.822.447-1.628.69-2.42.086-.281.172-.56.261-.836a154.8,154.8,0,0,1,18.784-13.136q.969-.575,1.935-1.12A30.16,30.16,0,0,1,138.253,89.255Zm5.432,25.654c.024.386.044.775.065,1.164s.039.778.053,1.17c0,.033,0,.063.006.094q.048,1.32.071,2.657H107.66a98.956,98.956,0,0,1,2.3-20.119,117.44,117.44,0,0,0,14.719.913,117.266,117.266,0,0,0,13.96-.822q1.454-.174,2.877-.384A94.668,94.668,0,0,1,143.684,114.908ZM141.7,143.186q-1.422-.211-2.88-.386a119.257,119.257,0,0,0-29.049.094,100.3,100.3,0,0,1-2.122-20.141h36.238c0,.041,0,.083,0,.124q0,.617-.018,1.231c-.009.45-.021.9-.033,1.346-.012.392-.027.784-.044,1.173A96.993,96.993,0,0,1,141.7,143.186Zm-13.391-64.46A153.829,153.829,0,0,0,113.476,88.81c3.02-6.994,6.884-11.329,10.822-12.2a6.647,6.647,0,0,1,1.179-.157c.3,0,.593.011.886.019a8.168,8.168,0,0,1,3.594,1.288C129.41,78.075,128.859,78.4,128.311,78.726Zm-23.33,34.951q-.052.7-.1,1.4c-.033.549-.065,1.1-.089,1.653a1.724,1.724,0,0,0-.009.177c-.009.229-.021.458-.027.69-.015.29-.024.582-.03.878-.006.141-.009.284-.012.428-.012.362-.018.726-.024,1.09H85.426a170.31,170.31,0,0,1,16.654-17.816q.858-.8,1.722-1.584c.522-.475,1.043-.941,1.568-1.407.545.094,1.093.185,1.645.27A96.727,96.727,0,0,0,104.981,113.676Zm8.306,40.67a58.658,58.658,0,0,1-2.219-6.324q-.347-1.192-.661-2.428a114.291,114.291,0,0,1,14.271-.877,112.884,112.884,0,0,1,16.381,1.164,61.552,61.552,0,0,1-2.806,8.465c-3.274,7.805-7.589,12.416-11.921,12.786-.264.008-.53.014-.794.019a6.767,6.767,0,0,1-1.236-.16C120.277,166.1,116.33,161.605,113.287,154.347Zm22.672-76.675a49.779,49.779,0,0,1,22.876,11.823q1.018.935,1.979,1.923a71.889,71.889,0,0,1-17.036,5q-.329-1.237-.693-2.42c-2.068-6.768-4.886-12.217-8.2-15.757C135.239,78.05,135.6,77.859,135.959,77.672Zm-21.478-.227q1.783-.356,3.612-.588c-3.66,3.173-6.8,8.575-9.121,15.517q-2.28,1.866-4.537,3.838a70.509,70.509,0,0,1-15.895-4.8q.96-.989,1.979-1.923A49.827,49.827,0,0,1,114.481,77.445ZM86.567,93.584a70.166,70.166,0,0,0,15.282,4.93c-.625.566-1.245,1.137-1.864,1.713a171.3,171.3,0,0,0-18.239,19.766h-5.74A43.316,43.316,0,0,1,86.567,93.584Zm-6.925,29.169q-1.738,2.342-3.3,4.671a42.613,42.613,0,0,1-.362-4.671ZM70.5,165.661c-2.833-2.635-3.766-7.094-2.705-12.893.939-5.121,3.411-11.2,7.192-17.735a47.261,47.261,0,0,0,11.284,18.924l.877.885a51.689,51.689,0,0,0,11.865,8.71C85.714,169.439,75.4,170.227,70.5,165.661Zm19.4-12.14q-1-.94-1.923-1.931a72.936,72.936,0,0,1,19.481-5.582c2.368,9.458,6.1,16.805,10.638,20.734q-1.827-.232-3.609-.588A49.756,49.756,0,0,1,89.9,153.522Zm43.972,12.84c3.894-3.6,7.171-9.739,9.459-17.572q.347-1.188.664-2.431a70.255,70.255,0,0,1,17.456,5.264c-.616.662-1.256,1.308-1.911,1.934A49.462,49.462,0,0,1,133.87,166.362Zm39.479-46.369H146.843a101.176,101.176,0,0,0-2.4-20.886,73.861,73.861,0,0,0,18.343-5.524A43.314,43.314,0,0,1,173.349,119.993Z" transform="translate(-48.252 -67.104)" fill="#cd151d"/>
</svg>
