<svg xmlns="http://www.w3.org/2000/svg" width="116" height="111" viewBox="0 0 116 111">
  <path id="Path_54" data-name="Path 54" d="M58.731,38.352v.024a2.353,2.353,0,0,1-.007,1.238m.007-1.238,5.037,17.678,16.4-.031a1.937,1.937,0,0,1,1.8,2.045,2.113,2.113,0,0,1-.746,1.653v.008L67.935,70.63l5.093,17.679a2.121,2.121,0,0,1-1.161,2.586,1.664,1.664,0,0,1-1.741-.392L57,79.641,43.75,90.6a1.674,1.674,0,0,1-2.522-.447,2.264,2.264,0,0,1-.256-1.834h-.007l5.093-17.678L32.77,59.745a2.238,2.238,0,0,1-.4-2.868,1.76,1.76,0,0,1,1.576-.846l16.294.031,5.037-17.694a1.77,1.77,0,0,1,2.273-1.324,1.961,1.961,0,0,1,1.168,1.324M.81,2H113.19A1.945,1.945,0,0,1,115,4.053V110.947A1.945,1.945,0,0,1,113.19,113H.81A1.945,1.945,0,0,1-1,110.947V4.053A1.945,1.945,0,0,1,.81,2Zm79.895,98.658a2.069,2.069,0,0,1,0-4.106h17.98a2.069,2.069,0,0,1,0,4.106Zm7.249-10.273a2.069,2.069,0,0,1,0-4.106h17.98a2.069,2.069,0,0,1,0,4.106ZM8.059,34.889a2.069,2.069,0,0,1,0-4.106h17.98a2.069,2.069,0,0,1,0,4.106Zm7.249,10.273a2.069,2.069,0,0,1,0-4.106h17.98a2.069,2.069,0,0,1,0,4.106Zm45.413,13.58L57,45.663,53.272,58.742h0a1.851,1.851,0,0,1-1.721,1.418l-12.12-.024,9.778,8.024a2.21,2.21,0,0,1,.7,2.327L46.148,83.559,55.884,75.5l.055-.047.007-.008a1.635,1.635,0,0,1,2.121,0l9.792,8.1L64.093,70.481a2.231,2.231,0,0,1,.656-2.3l9.819-8.063-12.017.024a1.833,1.833,0,0,1-1.831-1.418ZM26.184,10.22h3.621v4.114H26.184Zm-9.059,0h3.621v4.114H17.125Zm-9.059,0h3.621v4.114H8.066ZM111.379,22.554H2.628v86.332H111.379ZM2.628,18.44H111.379V6.114H2.628Z" transform="translate(1 -2)" fill="#cd151d"/>
</svg>
