<svg id="layer1" xmlns="http://www.w3.org/2000/svg" width="68" height="62" viewBox="0 0 68 62">
  <path id="path2161" d="M30.585,1.147a3.634,3.634,0,0,0-1.954,1.885,5.444,5.444,0,0,1-1.077,1.647,8.817,8.817,0,0,1-3.4,1.816,9.882,9.882,0,0,1-3.927.694,7.519,7.519,0,0,1-2.123-.557,4.755,4.755,0,0,0-2.96-.2A10.6,10.6,0,0,0,11.223,8.8a9.021,9.021,0,0,0-2.86,3.288,3.053,3.053,0,0,0,.19,2.517,5,5,0,0,1,.617,1.808,6.312,6.312,0,0,1-.887,3.312,7.33,7.33,0,0,1-2.2,2.844,8.054,8.054,0,0,1-2,.938,4.016,4.016,0,0,0-2.239,1.748,8.488,8.488,0,0,0-.79,4.21,8.488,8.488,0,0,0,.79,4.21A4.038,4.038,0,0,0,4.087,35.42a8.054,8.054,0,0,1,2,.938,7.33,7.33,0,0,1,2.2,2.844,6.312,6.312,0,0,1,.887,3.312,5,5,0,0,1-.617,1.808,3.042,3.042,0,0,0-.19,2.517,9.241,9.241,0,0,0,2.86,3.288,10.883,10.883,0,0,0,3.925,2.363,4.735,4.735,0,0,0,2.96-.2,7.519,7.519,0,0,1,2.123-.557,10.035,10.035,0,0,1,3.927.694,12.338,12.338,0,0,1,2.4,1.074V55.3a3.4,3.4,0,0,0,3.64,3.1v1.037a3.405,3.405,0,0,0,3.65,3.1h2.419a3.405,3.405,0,0,0,3.65-3.1V58.4a3.4,3.4,0,0,0,3.64-3.1V53.5a12.337,12.337,0,0,1,2.4-1.074,10.035,10.035,0,0,1,3.927-.694,7.519,7.519,0,0,1,2.123.557,4.735,4.735,0,0,0,2.96.2,10.883,10.883,0,0,0,3.925-2.363,9.241,9.241,0,0,0,2.86-3.288,3.042,3.042,0,0,0-.19-2.517,5,5,0,0,1-.617-1.808,6.312,6.312,0,0,1,.887-3.312,7.33,7.33,0,0,1,2.2-2.844,8.055,8.055,0,0,1,2-.938,4.038,4.038,0,0,0,2.239-1.748,8.488,8.488,0,0,0,.79-4.21,8.488,8.488,0,0,0-.79-4.21A4.015,4.015,0,0,0,66.03,23.5a8.047,8.047,0,0,1-2-.938,7.328,7.328,0,0,1-2.2-2.844,6.311,6.311,0,0,1-.887-3.312,5,5,0,0,1,.617-1.808,3.053,3.053,0,0,0,.19-2.517A9.021,9.021,0,0,0,58.893,8.8a10.6,10.6,0,0,0-3.925-2.363,4.755,4.755,0,0,0-2.96.2,7.519,7.519,0,0,1-2.123.557A9.883,9.883,0,0,1,45.958,6.5a8.818,8.818,0,0,1-3.4-1.816,5.445,5.445,0,0,1-1.077-1.647,3.634,3.634,0,0,0-1.954-1.885A11.745,11.745,0,0,0,35.058.529,11.748,11.748,0,0,0,30.585,1.147Zm7.862,1.847a1.51,1.51,0,0,1,.825.87,7.22,7.22,0,0,0,1.461,2.174A11.3,11.3,0,0,0,45.053,8.41a12.7,12.7,0,0,0,5.04.838,10.079,10.079,0,0,0,2.841-.7A1.967,1.967,0,0,1,54.24,8.41a8.978,8.978,0,0,1,2.95,1.861,7.606,7.606,0,0,1,2.258,2.47c.135.344.09.581-.152,1.106a6.652,6.652,0,0,0-.771,2.418,8.087,8.087,0,0,0,1.067,4.264,9.509,9.509,0,0,0,2.877,3.617,10.082,10.082,0,0,0,2.554,1.235,1.783,1.783,0,0,1,1.058.777,7.338,7.338,0,0,1,.548,3.3,7.2,7.2,0,0,1-.548,3.3,1.8,1.8,0,0,1-1.058.777,10.083,10.083,0,0,0-2.554,1.235A9.51,9.51,0,0,0,59.593,38.4a8.087,8.087,0,0,0-1.067,4.264,6.652,6.652,0,0,0,.771,2.418,1.273,1.273,0,0,1,.152,1.106,7.842,7.842,0,0,1-2.258,2.47,8.834,8.834,0,0,1-2.95,1.869,1.963,1.963,0,0,1-1.307-.145,10.078,10.078,0,0,0-2.841-.7,12.7,12.7,0,0,0-5.04.838c-.558.191-1.041.388-1.494.587v-2a1.045,1.045,0,1,0,.019-2.069,4.671,4.671,0,0,1,1.269-2.357c.845-.994,2.055-2.113,3.3-3.409,2.488-2.592,5.127-5.941,5.127-10.878,0-8.41-8.14-15.24-18.214-15.389-10.074.149-18.214,6.979-18.214,15.389,0,4.937,2.64,8.286,5.127,10.878,1.244,1.3,2.454,2.414,3.3,3.409a4.661,4.661,0,0,1,1.259,2.361,1.044,1.044,0,1,0,.028,2.065v2c-.453-.2-.936-.4-1.494-.587a12.7,12.7,0,0,0-5.04-.838,10.078,10.078,0,0,0-2.841.7,1.963,1.963,0,0,1-1.307.145,8.834,8.834,0,0,1-2.95-1.869,7.842,7.842,0,0,1-2.258-2.47,1.273,1.273,0,0,1,.152-1.106,6.653,6.653,0,0,0,.771-2.418A8.088,8.088,0,0,0,10.523,38.4a9.51,9.51,0,0,0-2.877-3.617,10.083,10.083,0,0,0-2.554-1.235,1.8,1.8,0,0,1-1.058-.777,7.2,7.2,0,0,1-.548-3.3,7.336,7.336,0,0,1,.548-3.3,1.783,1.783,0,0,1,1.058-.777,10.083,10.083,0,0,0,2.554-1.235,9.509,9.509,0,0,0,2.877-3.617,8.087,8.087,0,0,0,1.067-4.264,6.652,6.652,0,0,0-.771-2.418c-.241-.525-.286-.762-.152-1.106a7.606,7.606,0,0,1,2.258-2.47,8.978,8.978,0,0,1,2.95-1.861,1.968,1.968,0,0,1,1.307.137,10.078,10.078,0,0,0,2.841.7,12.7,12.7,0,0,0,5.04-.838,11.3,11.3,0,0,0,4.319-2.373,7.22,7.22,0,0,0,1.461-2.174,1.51,1.51,0,0,1,.825-.87A10.033,10.033,0,0,1,35.058,2.6a10.032,10.032,0,0,1,3.389.389ZM35.058,17.073c8.775.148,15.786,6.049,15.786,13.312,0,4.188-2.21,7.106-4.58,9.574-1.185,1.234-2.413,2.35-3.389,3.5a6.262,6.262,0,0,0-1.741,3.57H36.268V41.348l3.9-3.312c.8-.654.239-1.8-.87-1.782a1.325,1.325,0,0,0-.851.319l-3.389,2.874-3.389-2.874a1.324,1.324,0,0,0-.851-.319c-1.109-.021-1.67,1.128-.87,1.782l3.892,3.312v5.681H28.973a6.247,6.247,0,0,0-1.731-3.57c-.977-1.15-2.2-2.266-3.389-3.5-2.369-2.468-4.58-5.386-4.58-9.574,0-7.263,7.011-13.164,15.786-13.312Zm0,2.725a1.048,1.048,0,1,0,0,2.069,10.572,10.572,0,0,1,8.768,4.287c.9,1.218,2.886.1,2.1-1.037A13.106,13.106,0,0,0,35.058,19.8Zm12.148,8.632a1.047,1.047,0,1,0,1.21,1.039A1.137,1.137,0,0,0,47.206,28.429Z" transform="translate(-1.058 -0.529)" fill="#cd151d"/>
</svg>
