<svg id="Layer_32" data-name="Layer 32" xmlns="http://www.w3.org/2000/svg" width="68" height="62" viewBox="0 0 68 62">
  <path id="Path_70" data-name="Path 70" d="M62.419,47.586V15a1.052,1.052,0,0,0-1.1-1H45.968V12.858A4.087,4.087,0,0,0,49.258,9V8a.927.927,0,0,0-.11-.447l-3.29-6A1.113,1.113,0,0,0,44.871,1H25.129a1.112,1.112,0,0,0-.982.553l-3.29,6A.928.928,0,0,0,20.742,8V9a4.087,4.087,0,0,0,3.29,3.858V14H8.677a1.052,1.052,0,0,0-1.1,1V47.586L1.321,53.293A.957.957,0,0,0,1,54c.006,4.968,4.422,8.994,9.871,9H59.129c5.449-.006,9.865-4.032,9.871-9a.957.957,0,0,0-.321-.707ZM36.1,21H33.9V17H36.1Zm1.1-6H32.806a1.052,1.052,0,0,0-1.1,1v5H26.226V12.861a4.477,4.477,0,0,0,2.194-1.218,4.668,4.668,0,0,0,6.581,0,4.668,4.668,0,0,0,6.581,0,4.477,4.477,0,0,0,2.194,1.218V21H38.29V16A1.052,1.052,0,0,0,37.194,15ZM36.1,7V3h2.5l1.462,4Zm4.387,2A2.2,2.2,0,0,1,36.1,9ZM33.9,7H29.941L31.4,3h2.5Zm0,2a2.2,2.2,0,0,1-4.387,0Zm10.968,2a2.1,2.1,0,0,1-2.194-2h4.387A2.1,2.1,0,0,1,44.871,11Zm1.516-4H42.37L40.908,3h3.285ZM25.807,3H29.1L27.63,7H23.613ZM22.935,9h4.387a2.2,2.2,0,0,1-4.387,0Zm1.1,7v6a1.052,1.052,0,0,0,1.1,1H44.871a1.052,1.052,0,0,0,1.1-1V16H60.226V47H9.774V16ZM9.131,49H60.869l4.387,4H4.744ZM45.29,55l-1.1,2H25.807l-1.1-2Zm13.839,6H10.871a7.494,7.494,0,0,1-7.6-6H22.258l1.89,3.447a1.112,1.112,0,0,0,.982.553H44.871a1.113,1.113,0,0,0,.987-.553L47.742,55H66.724a7.494,7.494,0,0,1-7.6,6Z" transform="translate(-1 -1)" fill="#cd151d"/>
  <path id="Path_71" data-name="Path 71" d="M32,44c7.6,0,13.559-8.068,13.809-8.412a1,1,0,0,0,0-1.176C45.559,34.068,39.6,26,32,26s-13.559,8.068-13.809,8.412a1,1,0,0,0,0,1.176C18.441,35.932,24.4,44,32,44Zm0-16c5.48,0,10.254,5.217,11.726,7C42.254,36.783,37.48,42,32,42s-10.254-5.217-11.726-7C21.746,33.217,26.52,28,32,28Z" transform="translate(2 -1)" fill="#cd151d"/>
  <path id="Path_72" data-name="Path 72" d="M32,40a5,5,0,1,0-5-5A5,5,0,0,0,32,40Zm0-8a3,3,0,1,1-3,3A3,3,0,0,1,32,32Z" transform="translate(2 -1)" fill="#cd151d"/>
</svg>
